<svg viewbox="0 0 400 230"><g transform="translate(190, 190)"><path class="arc chart-first" d="M-170,2.0818995585505004e-14A170,170 0 0,1 -120.20815280171311,-120.20815280171307L-86.26702730475881,-86.26702730475878A122,122 0 0,0 -122,1.494069094959771e-14Z"></path><path class="arc chart-second" d="M-117.165698922674,-123.17548049819537A170,170 0 0,1 -3.122849337825751e-14,-170L-2.2411036424396564e-14,-122A122,122 0 0,0 -84.08361922686016,-88.39652129870491Z"></path><path class="arc chart-third" d="M4.249557305501125,-169.94687776686945A170,170 0 0,1 120.20815280171306,-120.20815280171311L86.26702730475877,-86.26702730475881A122,122 0 0,0 3.0496823015949253,-121.96187698563573Z"></path><path class="arc chart-quart" d="M123.17548049819526,-117.16569892267411A170,170 0 0,1 170,-1.9262832252003132e-13L122,-1.382391491026107e-13A122,122 0 0,0 88.39652129870484,-84.08361922686025Z"></path><circle class="needle-center" cx="0" cy="0" r="18"></circle><path class="needle" d="M -1.10214571844014E-15 -18 L 144 -1.76343314950422E-14 L 3.30643715532042E-15 18"></path></g><text font-size="15" transform="translate(3.8, 190)">0</text><text font-size="15" transform="translate(176.74418604651163, 12.666666666666666)">50</text><text font-size="15" transform="translate(368.93203883495147, 190)">100</text></svg>